<svg xmlns="http://www.w3.org/2000/svg" width="49" height="49" fill="none" viewBox="0 0 49 49">
  <circle cx="24.5" cy="24.5" r="24.5" fill="#D9D9D9"/>
  <path fill="#76A2F8" d="M25.333 24.333c-2.245 0-4.168-.8-5.767-2.399-1.6-1.599-2.4-3.521-2.4-5.767 0-2.246.8-4.169 2.4-5.768C21.165 8.799 23.087 8 25.333 8c2.246 0 4.169.8 5.768 2.399 1.6 1.6 2.399 3.522 2.399 5.768 0 2.245-.8 4.168-2.399 5.767-1.6 1.6-3.522 2.4-5.768 2.4Zm12.25 16.334h-24.5c-1.123 0-2.084-.4-2.885-1.2-.8-.801-1.2-1.762-1.198-2.884V34.95c0-1.157.298-2.22.894-3.191a5.947 5.947 0 0 1 2.373-2.22 30.349 30.349 0 0 1 6.43-2.374 27.982 27.982 0 0 1 6.636-.79c2.246 0 4.458.264 6.636.792A30.419 30.419 0 0 1 38.4 29.54a5.959 5.959 0 0 1 2.375 2.22 5.97 5.97 0 0 1 .892 3.19v1.633c0 1.123-.4 2.085-1.2 2.885-.801.8-1.762 1.2-2.884 1.199Zm-24.5-4.084h24.5V34.95c0-.374-.094-.715-.281-1.02a1.998 1.998 0 0 0-.74-.715A26.57 26.57 0 0 0 31 31.148a23.792 23.792 0 0 0-5.666-.69c-1.905 0-3.794.23-5.665.69a26.727 26.727 0 0 0-5.564 2.067c-.306.17-.553.408-.741.714a1.901 1.901 0 0 0-.28 1.021v1.633Zm12.25-16.333c1.123 0 2.085-.4 2.885-1.2.8-.8 1.2-1.762 1.199-2.883 0-1.123-.4-2.085-1.2-2.885-.801-.8-1.762-1.2-2.884-1.199-1.123 0-2.084.4-2.884 1.2-.8.801-1.2 1.762-1.199 2.884 0 1.123.4 2.084 1.2 2.884.8.8 1.762 1.2 2.883 1.199Z"/>
</svg>
