<svg xmlns="http://www.w3.org/2000/svg" width="1120" height="565" fill="none" viewBox="0 0 1120 565">
  <path stroke="#04D361" stroke-linecap="round" stroke-linejoin="round" stroke-miterlimit="10" stroke-width="3" d="M1020.77 183.235c0 5.642-4.56 10.217-10.2 10.217-5.63 0-10.2-4.575-10.2-10.217 0-5.643 4.57-10.217 10.2-10.217 5.62 0 10.2 4.574 10.2 10.217Zm-2.82 7.048 7.2 7.226m-748.303-44.355 10.735 10.749m0-10.749-10.735 10.749m615.308 242.73 10.735 10.749m0-10.749-10.735 10.749m-586.498 83.751v15.2m7.609-7.601h-15.198M100.699 250.247c0 5.09-4.124 9.238-9.226 9.238-5.083 0-9.225-4.13-9.225-9.238 0-5.091 4.124-9.238 9.225-9.238 5.102.018 9.226 4.147 9.226 9.238ZM643.628 11.056c0 5.09-4.124 9.238-9.225 9.238-5.084 0-9.226-4.13-9.226-9.238 0-5.09 4.124-9.238 9.226-9.238 5.101.018 9.225 4.148 9.225 9.238Zm135.343 542.529c0 5.091-4.124 9.238-9.225 9.238-5.084 0-9.225-4.13-9.225-9.238 0-5.091 4.123-9.238 9.225-9.238 5.101.018 9.225 4.147 9.225 9.238Z"/>
  <path fill="#76A2F8" d="M4.146 377.691a3.343 3.343 0 0 0 3.341-3.345A3.344 3.344 0 0 0 4.146 371a3.344 3.344 0 0 0-3.341 3.346 3.343 3.343 0 0 0 3.34 3.345Zm23.338 0a3.343 3.343 0 0 0 3.341-3.345A3.344 3.344 0 0 0 27.484 371a3.344 3.344 0 0 0-3.341 3.346 3.343 3.343 0 0 0 3.34 3.345Zm23.321 0a3.343 3.343 0 0 0 3.341-3.345 3.344 3.344 0 0 0-3.34-3.346 3.344 3.344 0 0 0-3.342 3.346 3.343 3.343 0 0 0 3.341 3.345Zm23.339 0a3.343 3.343 0 0 0 3.341-3.345 3.344 3.344 0 0 0-3.34-3.346 3.344 3.344 0 0 0-3.342 3.346 3.343 3.343 0 0 0 3.341 3.345Zm23.321 0a3.343 3.343 0 0 0 3.341-3.345A3.344 3.344 0 0 0 97.465 371a3.343 3.343 0 0 0-3.341 3.346 3.343 3.343 0 0 0 3.34 3.345Zm23.338 0a3.343 3.343 0 0 0 3.342-3.345 3.344 3.344 0 0 0-3.342-3.346 3.344 3.344 0 0 0-3.341 3.346 3.343 3.343 0 0 0 3.341 3.345ZM4.145 401.044a3.343 3.343 0 0 0 3.341-3.345 3.344 3.344 0 0 0-3.34-3.346 3.344 3.344 0 0 0-3.342 3.346 3.343 3.343 0 0 0 3.341 3.345Zm23.339 0a3.343 3.343 0 0 0 3.341-3.345 3.344 3.344 0 0 0-3.341-3.346 3.344 3.344 0 0 0-3.341 3.346 3.343 3.343 0 0 0 3.34 3.345Zm23.322 0a3.343 3.343 0 0 0 3.34-3.345 3.343 3.343 0 0 0-3.34-3.346 3.344 3.344 0 0 0-3.341 3.346 3.343 3.343 0 0 0 3.34 3.345Zm23.338 0a3.343 3.343 0 0 0 3.341-3.345 3.344 3.344 0 0 0-3.34-3.346 3.344 3.344 0 0 0-3.342 3.346 3.343 3.343 0 0 0 3.341 3.345Zm23.321 0a3.343 3.343 0 0 0 3.341-3.345 3.344 3.344 0 0 0-3.341-3.346 3.343 3.343 0 0 0-3.341 3.346 3.343 3.343 0 0 0 3.34 3.345Zm23.338 0a3.344 3.344 0 0 0 3.342-3.345 3.344 3.344 0 0 0-3.342-3.346 3.344 3.344 0 0 0-3.341 3.346 3.343 3.343 0 0 0 3.341 3.345ZM4.145 424.415a3.344 3.344 0 0 0 3.341-3.346 3.343 3.343 0 0 0-3.34-3.345 3.343 3.343 0 0 0-3.342 3.345 3.344 3.344 0 0 0 3.341 3.346Zm23.339 0a3.344 3.344 0 0 0 3.341-3.346 3.343 3.343 0 0 0-3.341-3.345 3.343 3.343 0 0 0-3.341 3.345 3.344 3.344 0 0 0 3.34 3.346Zm23.322 0a3.343 3.343 0 0 0 3.34-3.346 3.343 3.343 0 0 0-3.34-3.345 3.343 3.343 0 0 0-3.341 3.345 3.344 3.344 0 0 0 3.34 3.346Zm23.338 0a3.344 3.344 0 0 0 3.341-3.346 3.343 3.343 0 0 0-3.34-3.345 3.343 3.343 0 0 0-3.342 3.345 3.344 3.344 0 0 0 3.341 3.346Zm23.321 0a3.344 3.344 0 0 0 3.341-3.346 3.343 3.343 0 0 0-3.341-3.345 3.343 3.343 0 0 0-3.341 3.345 3.343 3.343 0 0 0 3.34 3.346Zm23.338 0a3.344 3.344 0 0 0 3.342-3.346 3.343 3.343 0 1 0-6.683 0 3.344 3.344 0 0 0 3.341 3.346ZM4.145 447.768a3.344 3.344 0 0 0 3.341-3.346 3.344 3.344 0 0 0-3.34-3.346 3.344 3.344 0 0 0-3.342 3.346 3.344 3.344 0 0 0 3.341 3.346Zm23.339 0a3.344 3.344 0 0 0 3.341-3.346 3.344 3.344 0 0 0-3.341-3.346 3.344 3.344 0 0 0-3.341 3.346 3.344 3.344 0 0 0 3.34 3.346Zm23.322 0a3.343 3.343 0 0 0 3.34-3.346 3.343 3.343 0 0 0-3.34-3.346 3.344 3.344 0 0 0-3.341 3.346 3.344 3.344 0 0 0 3.34 3.346Zm23.338 0a3.344 3.344 0 0 0 3.341-3.346 3.344 3.344 0 0 0-3.34-3.346 3.344 3.344 0 0 0-3.342 3.346 3.344 3.344 0 0 0 3.341 3.346Zm23.321 0a3.344 3.344 0 0 0 3.341-3.346 3.344 3.344 0 0 0-3.341-3.346 3.343 3.343 0 0 0-3.341 3.346 3.343 3.343 0 0 0 3.34 3.346Zm23.338 0a3.344 3.344 0 0 0 3.342-3.346 3.344 3.344 0 0 0-3.342-3.346 3.344 3.344 0 0 0-3.341 3.346 3.344 3.344 0 0 0 3.341 3.346Zm653.174-303.15a3.344 3.344 0 0 0 3.341-3.346 3.344 3.344 0 0 0-3.341-3.346 3.344 3.344 0 0 0-3.342 3.346 3.344 3.344 0 0 0 3.342 3.346Zm23.32 0a3.344 3.344 0 0 0 3.341-3.346 3.344 3.344 0 0 0-3.341-3.346 3.344 3.344 0 0 0-3.341 3.346 3.344 3.344 0 0 0 3.341 3.346Zm23.339 0a3.344 3.344 0 0 0 3.341-3.346 3.344 3.344 0 0 0-3.341-3.346 3.344 3.344 0 0 0-3.342 3.346 3.344 3.344 0 0 0 3.342 3.346Zm-46.66 23.37a3.344 3.344 0 0 0 3.341-3.346 3.343 3.343 0 0 0-3.341-3.345 3.343 3.343 0 0 0-3.341 3.345 3.344 3.344 0 0 0 3.341 3.346Zm23.321 0a3.343 3.343 0 0 0 3.341-3.345 3.344 3.344 0 0 0-3.341-3.346 3.344 3.344 0 0 0-3.341 3.346 3.343 3.343 0 0 0 3.341 3.345Zm23.339 0a3.343 3.343 0 0 0 3.341-3.345 3.344 3.344 0 0 0-3.341-3.346 3.344 3.344 0 0 0-3.342 3.346 3.344 3.344 0 0 0 3.342 3.345ZM261.705 22.433a3.343 3.343 0 0 0 3.341-3.346 3.343 3.343 0 0 0-3.341-3.345 3.343 3.343 0 0 0-3.341 3.345 3.343 3.343 0 0 0 3.341 3.346Zm23.32 0a3.343 3.343 0 0 0 3.341-3.346 3.343 3.343 0 0 0-3.341-3.345 3.343 3.343 0 0 0-3.341 3.345 3.343 3.343 0 0 0 3.341 3.346Zm23.338 0a3.343 3.343 0 0 0 3.341-3.346 3.343 3.343 0 0 0-3.341-3.345 3.343 3.343 0 0 0-3.341 3.345 3.343 3.343 0 0 0 3.341 3.346Zm-46.659 23.371a3.343 3.343 0 0 0 3.341-3.346 3.343 3.343 0 0 0-3.341-3.346 3.343 3.343 0 0 0-3.341 3.346 3.344 3.344 0 0 0 3.341 3.346Zm23.321 0a3.344 3.344 0 0 0 3.341-3.346 3.343 3.343 0 0 0-3.341-3.346 3.343 3.343 0 0 0-3.341 3.346 3.344 3.344 0 0 0 3.341 3.346Zm23.339 0a3.343 3.343 0 0 0 3.341-3.346 3.343 3.343 0 0 0-3.341-3.346 3.343 3.343 0 0 0-3.341 3.346 3.344 3.344 0 0 0 3.341 3.346Zm808.296 331.888a3.346 3.346 0 0 0 0-6.692 3.34 3.34 0 0 0-3.34 3.346 3.34 3.34 0 0 0 3.34 3.346Zm0 23.37a3.346 3.346 0 0 0 0-6.691 3.34 3.34 0 0 0-3.34 3.345 3.34 3.34 0 0 0 3.34 3.346Zm0 23.353a3.346 3.346 0 0 0 0-6.692 3.34 3.34 0 0 0-3.34 3.346 3.34 3.34 0 0 0 3.34 3.346Zm0 23.371a3.346 3.346 0 0 0 0-6.692 3.34 3.34 0 0 0-3.34 3.346 3.34 3.34 0 0 0 3.34 3.346Zm0 23.352a3.346 3.346 0 0 0 0-6.691 3.34 3.34 0 0 0-3.34 3.346 3.34 3.34 0 0 0 3.34 3.345Zm0 23.371a3.346 3.346 0 0 0 0-6.692 3.34 3.34 0 0 0-3.34 3.346 3.34 3.34 0 0 0 3.34 3.346Zm0 23.353a3.346 3.346 0 0 0 0-6.692 3.34 3.34 0 0 0-3.34 3.346 3.34 3.34 0 0 0 3.34 3.346Zm-23.34-140.17a3.34 3.34 0 0 0 3.34-3.346 3.34 3.34 0 1 0-6.68 0c0 1.848 1.5 3.346 3.34 3.346Zm0 23.37a3.34 3.34 0 0 0 3.34-3.346 3.34 3.34 0 1 0-6.68 0c0 1.848 1.5 3.346 3.34 3.346Zm0 23.353a3.34 3.34 0 0 0 3.34-3.346 3.34 3.34 0 1 0-6.68 0c0 1.848 1.5 3.346 3.34 3.346Zm0 23.371a3.34 3.34 0 0 0 3.34-3.346 3.34 3.34 0 1 0-6.68 0c0 1.848 1.5 3.346 3.34 3.346Zm0 23.352a3.34 3.34 0 0 0 3.34-3.345 3.34 3.34 0 1 0-6.68 0c0 1.847 1.5 3.345 3.34 3.345Zm0 23.371a3.34 3.34 0 0 0 3.34-3.346 3.34 3.34 0 1 0-6.68 0c0 1.848 1.5 3.346 3.34 3.346Zm0 23.353a3.34 3.34 0 0 0 3.34-3.346 3.34 3.34 0 1 0-6.68 0c0 1.848 1.5 3.346 3.34 3.346ZM1070 377.692a3.346 3.346 0 0 0 0-6.692 3.34 3.34 0 0 0-3.34 3.346 3.34 3.34 0 0 0 3.34 3.346Zm0 23.37a3.346 3.346 0 0 0 0-6.691 3.34 3.34 0 0 0-3.34 3.345 3.34 3.34 0 0 0 3.34 3.346Zm0 23.353a3.346 3.346 0 0 0 0-6.692 3.34 3.34 0 0 0-3.34 3.346 3.34 3.34 0 0 0 3.34 3.346Zm0 23.371a3.346 3.346 0 0 0 0-6.692 3.34 3.34 0 0 0-3.34 3.346 3.34 3.34 0 0 0 3.34 3.346Zm0 23.352a3.346 3.346 0 0 0 0-6.691 3.34 3.34 0 0 0-3.34 3.346 3.34 3.34 0 0 0 3.34 3.345Zm0 23.371a3.346 3.346 0 0 0 0-6.692 3.34 3.34 0 0 0-3.34 3.346 3.34 3.34 0 0 0 3.34 3.346Zm0 23.353a3.346 3.346 0 0 0 0-6.692 3.34 3.34 0 0 0-3.34 3.346 3.34 3.34 0 0 0 3.34 3.346Zm-23.34-140.171c1.85 0 3.34-1.497 3.34-3.345a3.34 3.34 0 1 0-6.68 0c0 1.848 1.5 3.345 3.34 3.345Zm0 23.371a3.34 3.34 0 0 0 3.34-3.346 3.34 3.34 0 1 0-6.68 0 3.34 3.34 0 0 0 3.34 3.346Zm0 23.353a3.34 3.34 0 0 0 3.34-3.346 3.339 3.339 0 0 0-3.34-3.345 3.339 3.339 0 0 0-3.34 3.345 3.34 3.34 0 0 0 3.34 3.346Zm0 23.371a3.34 3.34 0 0 0 3.34-3.346 3.34 3.34 0 1 0-6.68 0 3.34 3.34 0 0 0 3.34 3.346Zm0 23.352a3.34 3.34 0 0 0 3.34-3.345 3.34 3.34 0 1 0-6.68 0 3.34 3.34 0 0 0 3.34 3.345Zm0 23.371a3.34 3.34 0 0 0 3.34-3.346 3.34 3.34 0 1 0-6.68 0 3.34 3.34 0 0 0 3.34 3.346Zm0 23.353a3.34 3.34 0 0 0 3.34-3.346 3.34 3.34 0 1 0-6.68 0 3.34 3.34 0 0 0 3.34 3.346Z"/>
</svg>
