<svg xmlns="http://www.w3.org/2000/svg" width="599" height="352" fill="none" viewBox="0 0 599 352">
  <path stroke="#04D361" stroke-miterlimit="10" stroke-width=".779" d="M305.753 349.21c1.213-6.364 4.979-12.199 10.267-15.924"/>
  <path stroke="#04D361" stroke-miterlimit="10" stroke-width=".779" d="M305.589 351c.228-5.314 2.28-18.107 7.131-26.115"/>
  <path stroke="#04D361" stroke-miterlimit="10" stroke-width=".779" d="M305.662 350.343c.839-9.478.766-19.952-.711-29.357"/>
  <path fill="#04D361" stroke="#04D361" d="m316.793 330.811-.141.25c-.659 1.165-1.318 2.328-2.13 3.428.213-.071.438-.157.672-.251l.364-.147c.257-.105.522-.213.773-.307.373-.139.76-.264 1.121-.317 1.674-.246 3.383-.179 5.025.035 1.282.168 2.559.421 3.816.671.408.081.815.162 1.219.239 1.659.317 3.292.58 4.938.602.935.013 1.927-.109 2.764-.431.835-.322 1.479-.827 1.805-1.564l.001-.001c.539-1.206-.016-2.796-1.14-3.731l-.001-.001c-1.113-.933-2.639-1.304-4.214-1.456-.573-.056-1.146-.085-1.733-.115l-.656-.034c-.81-.046-1.639-.111-2.462-.268l-.001-.001a21.21 21.21 0 0 1-1.447-.347l-.222-.06a31.401 31.401 0 0 0-1.168-.299c-.914-.209-1.77-.315-2.608-.152l-4.575 4.257Zm0 0 .001-.002m-.001.002.001-.002m0 0c1.121-1.998 2.565-3.864 4.574-4.255l-4.574 4.255Zm-4.687-4.802c.625-.523 1.217-1.171 1.83-1.864l.239-.271c.737-.836 1.511-1.715 2.371-2.4 2.357-1.884 5.212-3.339 8.288-3.577l-12.728 8.112Zm0 0c.031-.18.078-.389.143-.626.219-.806.606-1.834 1.05-2.896.673-1.608 1.45-3.239 1.924-4.232.152-.319.272-.572.348-.738 1.559-3.385 3.965-6.563 7.367-7.516h.001c1.443-.404 2.946-.388 4.518-.248.535.048 1.088.111 1.649.175 1.046.121 2.121.244 3.167.274h.002c.502.013 1.014.004 1.514-.004.244-.004.485-.008.72-.009.732-.005 1.44.014 2.135.117 1.387.209 2.707.83 3.356 1.925v.001c.5.84.528 1.867.184 2.856a4.843 4.843 0 0 1-1.927 2.456c-1.811 1.146-4.136 1.228-6.416.975a51.39 51.39 0 0 1-1.943-.263c-.49-.072-.985-.145-1.502-.211-1.163-.148-2.353-.244-3.561-.148l-12.729 8.112Zm-.021.587-.001-.002.001.002Zm-4.857-14.723v.001c.293 1.793-.005 3.635-.566 5.411-.041.127-.089.287-.145.47-.168.56-.403 1.34-.693 2.078-.192.488-.398.928-.607 1.25a1.83 1.83 0 0 1-.283.353c-.085.077-.133.091-.142.093h-.001c-.104.02-.315-.01-.652-.178a6.35 6.35 0 0 1-1.038-.69c-.722-.57-1.4-1.255-1.729-1.598-1.005-1.059-1.805-2.306-2.299-3.669l-.001-.002c-.578-1.574-.778-3.256-.978-5.009l-.013-.115c-.192-1.697-.393-3.459-.975-5.131l-.001-.001c-.663-1.895-1.792-3.588-2.874-5.212-.284-.426-.565-.847-.833-1.266-1.315-2.052-2.428-4.247-2.411-6.548.018-2.306 1.483-4.626 3.582-4.999h.001c1.385-.248 2.858.333 4.077 1.258h.001a9.715 9.715 0 0 1 3.519 5.303c.323 1.271.386 2.594.448 3.977l.002.056c.061 1.348.124 2.752.461 4.118.419 1.713 1.251 3.285 2.047 4.791l.181.343c.861 1.634 1.645 3.204 1.922 4.916Z"/>
  <path stroke="#04D361" stroke-miterlimit="10" stroke-width=".779" d="M305.571 349.448c-.62-8.373-2.772-17.833-7.45-24.8"/>
  <path fill="#04D361" stroke="#04D361" d="m296.993 318.35.001.002c.669 1.868 1.083 3.825 1.428 5.798v.001c.018.104.05.237.081.369l.035.149c.043.19.083.383.104.567.022.188.021.337-.001.445-.021.103-.052.129-.06.135h-.001c-.004.004-.041.03-.168.011a1.642 1.642 0 0 1-.487-.177 4.95 4.95 0 0 1-.937-.652 8.025 8.025 0 0 1-.933-1.052c-.106-.137-.215-.283-.327-.432-.193-.256-.392-.523-.593-.77-2.711-3.335-6.995-4.938-11.132-5.531-2.07-.297-4.152-.375-6.218-.408-.546-.008-1.089-.014-1.631-.02-1.519-.016-3.026-.031-4.531-.115h-.004c-.936-.046-1.781-.148-2.405-.592-.816-.584-1.157-1.779-.907-2.869.249-1.078.992-2.032 1.908-2.819h.001c2.022-1.739 4.709-2.616 7.421-2.793 2.711-.178 5.45.31 8.125 1.034 2.578.697 5.091 1.633 7.067 3.296 1.954 1.651 3.289 3.957 4.164 6.423Z"/>
  <path stroke="#04D361" stroke-miterlimit="10" stroke-width=".779" d="M305.398 350.343c-.365-7.305-3.648-14.427-8.955-19.45"/>
  <path fill="#04D361" stroke="#04D361" d="M293.664 327.061c-1.836-.976-3.913-1.612-5.964-2.187l5.964 2.187Zm0 0c.138.074.264.141.388.216l.011.007c.798.451 1.33 1.236 1.916 2.13.068.103.171.312.311.614l.135.292a47.12 47.12 0 0 0 .417.884c-2.469-.676-5.185-.651-7.561-.628h-.028m4.411-3.515-4.411 3.515m0 0c-3.25.028-6.501.632-9.54 1.805l-.002.001c-.403.157-.796.32-1.184.481-1.478.614-2.872 1.192-4.378 1.275-.499.024-1.031-.048-1.46-.229-.424-.18-.705-.447-.817-.799-.176-.576.129-1.257.643-1.944m16.738-.59-16.738.59m0 0 .001-.002m-.001.002.001-.002m0 0c1.018-1.371 2.332-2.495 3.689-3.652m-3.689 3.652 3.689-3.652m0 0c1.769-1.504 3.523-2.95 5.625-3.359l-5.625 3.359Zm21.307 3.896a19.849 19.849 0 0 1-.63-1.291c-.193-.421-.364-.792-.485-.977-.574-.876-1.167-1.771-2.088-2.292a8.785 8.785 0 0 0-.41-.228l3.613 4.788Zm-15.682-7.255c1.889-.367 3.862.158 5.87.721l-5.87-.721Zm245.752-3.482v.001c-1.07 1.061-2.391 1.674-3.697 2.186-.32.126-.637.245-.95.362-.993.373-1.948.732-2.835 1.238-2.503 1.432-4.312 4.015-5.399 6.788a4.015 4.015 0 0 1-.038.099c-.408 1.046-.994 2.549-1.319 4.022-.168.76-.261 1.49-.231 2.13.03.642.181 1.152.461 1.517l.002.002c.634.835 1.751 1.009 3.136.781 1.363-.226 2.795-.814 3.831-1.25h.001c.379-.159.764-.326 1.152-.496 2.008-.874 4.139-1.802 6.36-1.898 2.402-.106 4.65.761 6.709 1.588l.056.022c2.07.831 4.087 1.64 6.225 1.649 2.144.009 4.433-1.013 5.407-2.906.409-.801.575-1.7.755-2.674l.101-.538c.221-1.142.522-2.362 1.398-3.332.898-.994 2.078-1.394 3.272-1.561.857-.12 1.775-.124 2.629-.128.312-.001.616-.003.904-.01h.001c2.399-.053 4.865-.7 6.721-2.257l.001-.001c1.863-1.555 2.954-4.133 2.364-6.277-.489-1.775-1.972-3.041-3.543-4.309h-.001c-2.166-1.754-4.434-3.427-7.046-3.251-.93.067-1.846.366-2.834.688l-.073.024c-.992.324-2.058.665-3.165.705-1.397.049-2.66-.378-3.82-.97-.881-.45-1.733-1.012-2.544-1.547-.246-.162-.489-.322-.727-.476-2.089-1.346-4.534-2.326-6.642-1.312l-6.622 11.391Zm0 0c1.508-1.501 2.184-3.584 2.799-5.479m-2.799 5.479 2.799-5.479m0 0c.087-.267.172-.531.259-.788m-.259.788.259-.788m0 0c.72-2.145 1.743-4.245 3.564-5.124l-3.564 5.124Z"/>
  <path stroke="#fff" stroke-linecap="round" stroke-linejoin="round" stroke-miterlimit="10" stroke-width=".705" d="M513.616 339.072c12.137-10.437 26.298-17.349 41.58-20.289"/>
  <path fill="#04D361" d="M525.616 323.02c.282-3.443-.365-7.031.766-10.291 2.015-5.808 9-8.839 10.75-14.729 2.098-7.04-4.304-14.226-3.191-21.485.465-3.059 2.225-5.753 3.319-8.647 1.094-2.895 1.377-6.52-.748-8.775-2.225-2.356-6.264-2.082-8.908-.201-2.645 1.881-4.168 4.931-5.408 7.935-1.231 3.004-2.316 6.145-4.404 8.638-3.803 4.538-10.641 6.529-12.72 12.071-2.116 5.643 1.887 11.615 2.598 17.596.538 4.529-.839 9.04-2.07 13.441-1.222 4.401-2.307 9.058-1.185 13.477 1.495 5.89 6.793 9.643 11.872 5.862 5.025-3.716 8.809-8.419 9.329-14.892Z"/>
  <path stroke="#fff" stroke-linecap="round" stroke-linejoin="round" stroke-miterlimit="10" stroke-width="1.136" d="M513.068 339.355c-2.015-21.02 2.599-43.82 13.377-61.972"/>
  <path fill="#04D361" d="M499.646 331.429c-2.216-3.132-3.483-7.049-6.492-9.432-3.447-2.739-8.225-2.767-12.602-3.123-4.386-.356-9.329-1.598-11.362-5.506-1.113-2.146-1.113-4.693-1.888-6.976-.857-2.511-2.608-4.593-3.839-6.94-1.221-2.346-1.869-5.332-.446-7.569 1.44-2.265 4.595-2.931 7.176-2.201 2.581.731 4.696 2.548 6.629 4.41 1.933 1.863 3.821 3.854 6.201 5.077 3.948 2.018 8.635 1.644 13.067 1.452 4.431-.183 9.264 0 12.693 2.831 2.817 2.328 4.103 5.99 5.252 9.469 1.66 4.976 3.356 9.934 4.97 14.929.994 3.068 2.89 7.77-.301 10.181-5.626 4.246-15.812-2.027-19.058-6.602Z"/>
  <path stroke="#fff" stroke-linecap="round" stroke-linejoin="round" stroke-miterlimit="10" stroke-width=".817" d="M516.926 338.214c-7.04-16.363-21.94-30.297-39.776-36.442"/>
  <path fill="#04D361" d="M111.359 337.462c2.015-3.004 3.182-6.857 5.89-9.058 3.11-2.511 7.386-2.182 11.326-2.228 3.93-.036 8.37-.922 10.231-4.72 1.021-2.082 1.03-4.657 1.75-6.913.785-2.474 2.371-4.446 3.493-6.729 1.112-2.283 1.714-5.251.465-7.616-1.277-2.392-4.094-3.296-6.41-2.748-2.317.548-4.231 2.228-5.973 3.963-1.742 1.735-3.447 3.607-5.599 4.666-3.556 1.753-7.751 1.023-11.726.502-3.976-.511-8.307-.676-11.399 1.927-2.544 2.145-3.72 5.752-4.787 9.176-1.523 4.904-3.082 9.789-4.568 14.711-.912 3.031-2.654 7.633.191 10.309 4.988 4.729 14.17-.859 17.116-5.242Z"/>
  <path stroke="#fff" stroke-linecap="round" stroke-linejoin="round" stroke-miterlimit="10" stroke-width=".778" d="M95.82 343.05c6.439-16.015 19.898-28.991 35.928-33.894"/>
  <path fill="#04D361" d="M86.994 329.053c-.219-3.169.292-6.465-.611-9.469-1.614-5.342-7.213-8.127-8.617-13.542-1.678-6.474 3.447-13.084 2.562-19.768-.374-2.813-1.787-5.287-2.662-7.954-.876-2.666-1.104-5.999.601-8.071 1.788-2.174 5.016-1.918 7.14-.183 2.116 1.735 3.338 4.538 4.332 7.296.984 2.757 1.86 5.652 3.528 7.944 3.046 4.173 8.526 5.999 10.186 11.103 1.696 5.196-1.514 10.683-2.079 16.189-.429 4.173.675 8.319 1.659 12.364.985 4.045 1.852 8.327.949 12.4-1.195 5.415-5.444 8.866-9.51 5.396-4.022-3.424-7.059-7.752-7.478-13.705Z"/>
  <path stroke="#fff" stroke-linecap="round" stroke-linejoin="round" stroke-miterlimit="10" stroke-width=".975" d="M97.043 344.073c1.613-19.33-2.089-40.304-10.715-57.005"/>
  <path fill="#04D361" stroke="#04D361" d="M35.2 313.594c-.738 3.168.794 6.994 3.21 9.368 2.417 2.383 5.553 3.488 8.535 3.753l7.806 2.575.394-.308c-1.062-1.358-2.454-1.984-3.895-2.303-1.039-.23-2.148-.308-3.182-.38a48.964 48.964 0 0 1-1.078-.082c-2.896-.257-5.914-1.328-8.229-3.611-2.328-2.288-3.762-5.944-3.074-8.898m-.487-.114.487.114m-.487-.114.487.113v.001m-.487-.114c.611-2.603 2.535-4.319 4.368-5.881 2.544-2.173 5.417-4.447 8.836-3.963 1.204.169 2.385.673 3.564 1.177 1.249.533 2.496 1.066 3.767 1.198m-20.048 7.583c.569-2.422 2.36-4.042 4.205-5.614v-.001c2.576-2.199 5.279-4.295 8.442-3.848v.001c1.138.159 2.264.64 3.467 1.153l.076.033c1.202.513 2.484 1.053 3.807 1.19m0 0 .051-.497m-.051.497c1.672.173 3.178-.304 4.56-1.012 1.048-.538 2.06-1.228 3.024-1.886.294-.201.584-.399.869-.589l.001-.001c2.48-1.659 5.421-2.808 8.038-1.255m-16.492 4.743.051-.497m0 0c2.716.281 5.015-1.288 7.232-2.802.299-.204.596-.407.893-.604 2.499-1.671 5.68-2.986 8.572-1.27m-.256.43.255-.43m-.255.43c1.13.675 2.031 1.757 2.768 3.061.736 1.303 1.29 2.799 1.742 4.263v.001c.114.364.226.735.339 1.109.787 2.61 1.63 5.406 3.445 7.498m-8.294-15.932.255-.43m0 0c2.463 1.471 3.821 4.648 4.733 7.607l3.306 8.755m0 0c1.288 1.492 2.87 2.411 4.457 3.204.388.194.774.379 1.156.563 1.205.578 2.374 1.14 3.462 1.895v.001c3.101 2.146 5.368 5.819 6.753 9.691l.056.156c.512 1.438 1.254 3.518 1.682 5.546.222 1.051.356 2.067.335 2.958-.021.897-.197 1.616-.545 2.119l-.001.002c-.76 1.108-2.114 1.254-3.798.837-1.66-.411-3.414-1.321-4.674-1.991v-.001c-.452-.239-.91-.49-1.373-.743-1-.547-2.02-1.105-3.04-1.587-1.5-.71-3.055-1.286-4.665-1.468-2.884-.327-5.574.665-8.035 1.629l-.073.028c-2.467.967-4.875 1.91-7.464 1.746-2.593-.164-5.448-1.721-6.718-4.459l22.485-20.126Zm0 0 .378-.327-.379.326.001.001Zm8.648 25.422c-.464-.246-.929-.501-1.395-.755-2.451-1.342-4.93-2.697-7.504-2.989-2.745-.31-5.325.63-7.797 1.598l-.118.047c-2.434.953-4.932 1.932-7.632 1.761-2.745-.173-5.782-1.817-7.14-4.748l31.587 5.086Zm0 0c2.508 1.333 7.222 3.762 9.119.995l-9.118-.995Z"/>
  <path stroke="#fff" stroke-linecap="round" stroke-linejoin="round" stroke-miterlimit="10" stroke-width=".899" d="M97.699 343.854c-14.873-15.03-32.116-25.457-50.608-30.607"/>
  <path stroke="#04D361" stroke-linecap="round" stroke-linejoin="round" stroke-miterlimit="10" stroke-width="2" d="M523.847 71.597a5.237 5.237 0 0 1-5.234 5.24 5.238 5.238 0 0 1-5.234-5.24 5.238 5.238 0 0 1 5.234-5.241 5.243 5.243 0 0 1 5.234 5.24Zm-1.45 3.616 3.693 3.706M319.068 1l5.507 5.514m0-5.514-5.507 5.514m78.927 311.945 5.507 5.515m0-5.515-5.507 5.515M48.536 245.386v7.798m3.903-3.9h-7.796M31.6 185.515a4.738 4.738 0 0 1-4.733 4.739 4.738 4.738 0 0 1-4.733-4.739 4.737 4.737 0 0 1 4.733-4.739 4.743 4.743 0 0 1 4.732 4.739Zm196.427 114.619a4.737 4.737 0 0 1-4.732 4.739 4.737 4.737 0 0 1-4.733-4.739 4.738 4.738 0 0 1 4.733-4.739 4.743 4.743 0 0 1 4.732 4.739Zm312.312-85.348a4.737 4.737 0 0 1-4.732 4.739 4.737 4.737 0 0 1-4.733-4.739 4.738 4.738 0 0 1 4.733-4.739 4.743 4.743 0 0 1 4.732 4.739Z"/>
  <path fill="#76A2F8" stroke="#76A2F8" d="M2.928 102.464a1.215 1.215 0 1 1-2.428 0 1.215 1.215 0 1 1 2.428 0Zm11.972 0a1.215 1.215 0 1 1-2.427 0 1.215 1.215 0 1 1 2.428 0Zm11.964 0a1.214 1.214 0 1 1-2.428 0 1.215 1.215 0 1 1 2.428 0Zm11.973 0a1.215 1.215 0 1 1-2.428 0 1.215 1.215 0 1 1 2.428 0Zm11.963 0a1.214 1.214 0 1 1-2.427 0 1.215 1.215 0 1 1 2.428 0Zm11.973 0a1.215 1.215 0 1 1-2.428 0 1.215 1.215 0 1 1 2.428 0Zm-59.845 11.98a1.215 1.215 0 1 1-2.428 0 1.215 1.215 0 1 1 2.428 0Zm11.972 0a1.215 1.215 0 1 1-2.427 0 1.215 1.215 0 1 1 2.428 0Zm11.964 0a1.215 1.215 0 1 1-2.428 0 1.215 1.215 0 1 1 2.428 0Zm11.973 0a1.215 1.215 0 1 1-2.428 0 1.215 1.215 0 1 1 2.428 0Zm11.963 0a1.214 1.214 0 1 1-2.427 0 1.215 1.215 0 1 1 2.428 0Zm11.973 0a1.215 1.215 0 1 1-2.428 0 1.215 1.215 0 1 1 2.428 0ZM2.928 126.433a1.215 1.215 0 1 1-2.428 0 1.215 1.215 0 1 1 2.428 0Zm11.972 0a1.215 1.215 0 1 1-2.427 0 1.215 1.215 0 1 1 2.428 0Zm11.964 0a1.214 1.214 0 1 1-2.428 0 1.215 1.215 0 1 1 2.428 0Zm11.973 0a1.215 1.215 0 1 1-2.428 0 1.215 1.215 0 1 1 2.428 0Zm11.963 0a1.214 1.214 0 1 1-2.427 0 1.215 1.215 0 1 1 2.428 0Zm11.973 0a1.215 1.215 0 1 1-2.428 0 1.215 1.215 0 1 1 2.428 0Zm-59.845 11.98a1.215 1.215 0 1 1-2.428 0 1.215 1.215 0 1 1 2.428 0Zm11.972 0a1.215 1.215 0 1 1-2.427 0 1.215 1.215 0 1 1 2.428 0Zm11.964 0a1.215 1.215 0 1 1-2.428 0 1.215 1.215 0 1 1 2.428 0Zm11.973 0a1.215 1.215 0 1 1-2.428 0 1.215 1.215 0 1 1 2.428 0Zm11.963 0a1.214 1.214 0 1 1-2.427 0 1.215 1.215 0 1 1 2.428 0Zm11.973 0a1.215 1.215 0 1 1-2.428 0 1.215 1.215 0 1 1 2.428 0Zm124.851 189.776a1.215 1.215 0 1 1-2.428 0 1.215 1.215 0 1 1 2.428 0Zm11.973 0a1.215 1.215 0 1 1-2.428 0 1.215 1.215 0 1 1 2.428 0Zm11.963 0a1.215 1.215 0 1 1-2.428 0 1.215 1.215 0 1 1 2.428 0Zm11.973 0a1.215 1.215 0 1 1-2.428 0 1.215 1.215 0 1 1 2.428 0Zm11.963 0a1.215 1.215 0 1 1-2.428 0 1.215 1.215 0 1 1 2.428 0Zm-47.872 11.989a1.215 1.215 0 1 1-2.428 0 1.215 1.215 0 1 1 2.428 0Zm11.972 0a1.215 1.215 0 1 1-2.428 0 1.215 1.215 0 1 1 2.428 0Zm11.964 0a1.215 1.215 0 1 1-2.428 0 1.215 1.215 0 1 1 2.428 0Zm11.973 0a1.215 1.215 0 1 1-2.428 0 1.215 1.215 0 1 1 2.428 0Zm11.963 0a1.215 1.215 0 1 1-2.428 0 1.215 1.215 0 1 1 2.428 0ZM490.93 28.398a1.215 1.215 0 1 1-1.214-1.217c.67 0 1.214.544 1.214 1.217Zm11.964 0a1.215 1.215 0 1 1-1.214-1.217c.67 0 1.214.544 1.214 1.217Zm11.972 0a1.215 1.215 0 1 1-2.428 0 1.215 1.215 0 1 1 2.428 0ZM490.93 40.387a1.215 1.215 0 1 1-2.428 0 1.215 1.215 0 1 1 2.428 0Zm11.964 0a1.215 1.215 0 1 1-2.428 0 1.215 1.215 0 1 1 2.428 0Zm11.972 0a1.215 1.215 0 1 1-2.428 0 1.215 1.215 0 1 1 2.428 0ZM177.582 5.716a1.215 1.215 0 1 1-2.428 0 1.215 1.215 0 1 1 2.428 0Zm11.964 0a1.215 1.215 0 1 1-2.428 0 1.215 1.215 0 1 1 2.428 0Zm11.972 0a1.215 1.215 0 1 1-2.428 0 1.215 1.215 0 1 1 2.428 0Zm-23.936 11.989a1.215 1.215 0 1 1-2.428 0 1.215 1.215 0 1 1 2.428 0Zm11.964.001a1.215 1.215 0 1 1-2.428 0 1.215 1.215 0 1 1 2.428 0Zm11.972 0a1.215 1.215 0 1 1-2.428 0 1.215 1.215 0 1 1 2.428 0ZM598.5 190.4a1.215 1.215 0 1 1-2.43.002 1.215 1.215 0 0 1 2.43-.002Zm0 11.989a1.215 1.215 0 1 1-2.43.002 1.215 1.215 0 0 1 2.43-.002Zm0 11.98a1.215 1.215 0 1 1-2.43.002 1.215 1.215 0 0 1 2.43-.002Zm0 11.989a1.215 1.215 0 1 1-2.43.002 1.215 1.215 0 0 1 2.43-.002Zm0 11.98a1.215 1.215 0 1 1-2.43.002 1.215 1.215 0 0 1 2.43-.002Zm0 11.989a1.215 1.215 0 1 1-2.43.002 1.215 1.215 0 0 1 2.43-.002Zm0 11.98a1.215 1.215 0 1 1-2.43.002 1.215 1.215 0 0 1 2.43-.002ZM586.527 190.4a1.215 1.215 0 1 1-2.43.002 1.215 1.215 0 0 1 2.43-.002Zm0 11.989a1.215 1.215 0 1 1-2.43.002 1.215 1.215 0 0 1 2.43-.002Zm0 11.98a1.215 1.215 0 1 1-2.43.002 1.215 1.215 0 0 1 2.43-.002Zm0 11.989a1.215 1.215 0 1 1-2.43.002 1.215 1.215 0 0 1 2.43-.002Zm0 11.98a1.215 1.215 0 1 1-2.43.002 1.215 1.215 0 0 1 2.43-.002Zm0 11.989a1.215 1.215 0 1 1-2.43.002 1.215 1.215 0 0 1 2.43-.002Zm0 11.98a1.215 1.215 0 1 1-2.43.002 1.215 1.215 0 0 1 2.43-.002ZM574.564 190.4a1.215 1.215 0 1 1-2.43.002 1.215 1.215 0 0 1 2.43-.002Zm0 11.989a1.215 1.215 0 1 1-2.43.002 1.215 1.215 0 0 1 2.43-.002Zm0 11.98a1.215 1.215 0 1 1-2.43.002 1.215 1.215 0 0 1 2.43-.002Zm0 11.989a1.215 1.215 0 1 1-2.43.002 1.215 1.215 0 0 1 2.43-.002Zm0 11.98a1.215 1.215 0 1 1-2.43.002 1.215 1.215 0 0 1 2.43-.002Zm0 11.989a1.215 1.215 0 1 1-2.43.002 1.215 1.215 0 0 1 2.43-.002Zm0 11.98a1.215 1.215 0 1 1-2.43.002 1.215 1.215 0 0 1 2.43-.002ZM562.591 190.4a1.215 1.215 0 1 1-2.43.002 1.215 1.215 0 0 1 2.43-.002Zm0 11.989a1.215 1.215 0 1 1-2.43.002 1.215 1.215 0 0 1 2.43-.002Zm0 11.98a1.215 1.215 0 1 1-2.43.002 1.215 1.215 0 0 1 2.43-.002Zm0 11.989a1.215 1.215 0 1 1-2.43.002 1.215 1.215 0 0 1 2.43-.002Zm0 11.98a1.215 1.215 0 1 1-2.43.002 1.215 1.215 0 0 1 2.43-.002Zm0 11.989a1.215 1.215 0 1 1-2.43.002 1.215 1.215 0 0 1 2.43-.002Zm0 11.98a1.215 1.215 0 1 1-2.43.002 1.215 1.215 0 0 1 2.43-.002Z"/>
  <path fill="#04D361" stroke="#04D361" d="M459.05 261.842H148.286c-5.61 0-10.168-4.594-10.168-10.268V60.031c0-5.674 4.558-10.269 10.168-10.269h310.773c5.61 0 10.169 4.595 10.169 10.269v191.542c-.009 5.675-4.568 10.269-10.178 10.269Z"/>
  <path fill="#fff" d="M458.6 253.268H148.733c-4.806 0-8.709-3.908-8.709-8.72V60.073c0-4.812 3.903-8.72 8.709-8.72H458.6c4.806 0 8.708 3.908 8.708 8.72v184.475c0 4.821-3.902 8.72-8.708 8.72Z"/>
  <path fill="#E6E6F0" d="M356.691 68.61v130.155a7.095 7.095 0 0 1-7.094 7.104H153.894a7.04 7.04 0 0 1-4.614-1.708 7.104 7.104 0 0 1-2.48-5.396V68.611c0-3.927 3.182-7.104 7.094-7.104h195.703c1.76 0 3.383.639 4.614 1.707a7.073 7.073 0 0 1 2.48 5.397Zm96.809 48.532h-81.01a7.095 7.095 0 0 1-7.094-7.104V68.611a7.096 7.096 0 0 1 7.094-7.104h81.01a7.095 7.095 0 0 1 7.094 7.104v41.427c0 3.927-3.182 7.104-7.094 7.104Zm0 65.494h-81.01a7.096 7.096 0 0 1-7.094-7.104v-41.428A7.096 7.096 0 0 1 372.49 127h81.01a7.095 7.095 0 0 1 7.094 7.104v41.428c0 3.926-3.182 7.104-7.094 7.104Zm0 62.055h-81.01a7.096 7.096 0 0 1-7.094-7.104v-37.483A7.096 7.096 0 0 1 372.49 193h81.01a7.095 7.095 0 0 1 7.094 7.104v37.483c0 3.926-3.182 7.104-7.094 7.104Zm-199.675-24.852H149.381a2.57 2.57 0 0 1-2.572-2.574 2.57 2.57 0 0 1 2.572-2.575h104.444a2.575 2.575 0 0 1 0 5.149ZM259.853 244H149.484c-1.503 0-2.717-1.116-2.717-2.499v-10.002c0-1.383 1.214-2.499 2.717-2.499h110.369c1.503 0 2.718 1.116 2.718 2.499v10.002c0 1.383-1.215 2.499-2.718 2.499Zm71.297-24.161h22.97a2.57 2.57 0 0 0 2.571-2.574 2.57 2.57 0 0 0-2.571-2.575h-22.97a2.575 2.575 0 0 0 0 5.149Zm-38.964 0h22.97a2.57 2.57 0 0 0 2.572-2.574 2.57 2.57 0 0 0-2.572-2.575h-22.97a2.57 2.57 0 0 0-2.571 2.575 2.57 2.57 0 0 0 2.571 2.574Zm16.378 24.271h45.556a2.57 2.57 0 0 0 2.571-2.575v-10.309a2.57 2.57 0 0 0-2.571-2.575h-45.556a2.57 2.57 0 0 0-2.572 2.575v10.309a2.57 2.57 0 0 0 2.572 2.575Z"/>
  <g opacity=".24">
    <path fill="#E6E6F0" stroke="#11174D" stroke-miterlimit="10" stroke-width="2" d="M412.702 104.14c7.932 0 14.362-6.439 14.362-14.382 0-7.942-6.43-14.381-14.362-14.381s-14.362 6.439-14.362 14.381c0 7.943 6.43 14.382 14.362 14.382Z"/>
    <path fill="#E6E6F0" stroke="#11174D" stroke-miterlimit="10" stroke-width="2" d="m418.587 88.34-8.198-4.739a1.348 1.348 0 0 0-2.024 1.169v9.478a1.348 1.348 0 0 0 2.024 1.169l8.198-4.74a1.347 1.347 0 0 0 0-2.337Z"/>
  </g>
  <g opacity=".24">
    <path fill="#E6E6F0" stroke="#11174D" stroke-miterlimit="10" stroke-width="2" d="M412.702 168.763c7.932 0 14.362-6.439 14.362-14.382 0-7.942-6.43-14.381-14.362-14.381s-14.362 6.439-14.362 14.381c0 7.943 6.43 14.382 14.362 14.382Z"/>
    <path fill="#E6E6F0" stroke="#11174D" stroke-miterlimit="10" stroke-width="2" d="m418.587 152.963-8.198-4.739a1.348 1.348 0 0 0-2.024 1.169v9.478a1.348 1.348 0 0 0 2.024 1.169l8.198-4.739a1.348 1.348 0 0 0 0-2.338Z"/>
  </g>
  <g opacity=".24">
    <path fill="#E6E6F0" stroke="#11174D" stroke-miterlimit="10" stroke-width="2" d="M412.702 232.763c7.932 0 14.362-6.439 14.362-14.382 0-7.942-6.43-14.381-14.362-14.381s-14.362 6.439-14.362 14.381c0 7.943 6.43 14.382 14.362 14.382Z"/>
    <path fill="#E6E6F0" stroke="#11174D" stroke-miterlimit="10" stroke-width="2" d="m418.587 216.963-8.198-4.739a1.348 1.348 0 0 0-2.024 1.169v9.478a1.348 1.348 0 0 0 2.024 1.169l8.198-4.739a1.348 1.348 0 0 0 0-2.338Z"/>
  </g>
  <path fill="#F2F2FA" d="M354.211 63.214 149.28 204.161a7.104 7.104 0 0 1-2.48-5.396V68.611c0-3.927 3.182-7.104 7.094-7.104h195.703c1.76 0 3.383.639 4.614 1.707Z"/>
  <mask id="a" width="210" height="175" x="147" y="32" maskUnits="userSpaceOnUse" style="mask-type:alpha">
    <path fill="#A3D1DE" d="M356.947 40.819v156.768c0 4.729-3.167 8.557-7.081 8.557H154.512c-1.757 0-3.368-.77-4.606-2.057-1.511-1.573-2.476-3.893-2.476-6.5V40.819c0-4.73 3.177-8.557 7.082-8.557h195.354c1.757 0 3.377.77 4.606 2.057 1.52 1.573 2.475 3.893 2.475 6.5Z"/>
  </mask>
  <g mask="url(#a)">
    <path fill="#FFCAD0" d="M340.442 142.967s11.7-9.249 12.01-11.897c.583-4.986 2.37-8.894 13.076-12.199 0 0 .829 1.588-.657 3.314-1.623 1.872-2.909 2.529-2.909 2.529s2.836 1.087 7.058-2.218c4.222-3.297 6-6.164 7.778-5.461 0 0 2.097-1.899 3.091-1.598 0 0 .73.219.593 1.005 1.65-.256 1.313 4.51-1.623 8.382-4.222 5.57-9.493 10.364-13.806 11.943-3.237 1.188-16.614 14.82-16.614 14.82l-7.997-8.62Z"/>
    <path fill="#04D361" d="M304.315 190.157c-5.107 1.726-33.438-41.903-33.438-41.903-10.952-12.619-1.122-54.183 8.79-39.61 0 0 25.778 46.696 28.559 50.458 3.456 4.675 14.955 24.672-3.911 31.055Z"/>
    <path fill="#04D361" d="M272.39 233.465h-74.699s-5.736-2.529-.748-13.559c1.87-4.118 1.058-14.729.748-29.293-.629-28.799-9.164-76.6 1.368-82.079 6.31-3.296 19.714-7.633 29.444-10.601.583-.164 1.149-.338 1.705-.502a550.457 550.457 0 0 1 9.738-2.822s4.706.685 14.262 3.516c.52.155 1.058.32 1.614.484 2.489.758 5.261 1.643 8.343 2.693 16.706 5.689 14.827 3.662 17.043 24.554 1.769 16.682-8.818 107.609-8.818 107.609Z"/>
    <path fill="#F2F2FA" d="M255.822 98.6c-.219 3.542-1.805 6.674-4.222 8.966a13.582 13.582 0 0 1-9.41 3.771c-7.487 0-13.541-5.999-13.696-13.404.583-.164 1.149-.338 1.705-.502a550.457 550.457 0 0 1 9.738-2.822s4.706.685 14.262 3.516c.52.146 1.067.31 1.623.475Z"/>
    <path fill="#FBD5D9" d="m254.181 68.695-1.177 22.755-.337 6.492a10.267 10.267 0 0 1-3.228 6.985 10.31 10.31 0 0 1-7.131 2.849c-5.826 0-10.523-4.812-10.368-10.637l.292-11.588.493-19.248 21.456 2.392Z"/>
    <path fill="#FFA4AD" d="m254.181 73.243-1.177 21.43c-10.067.402-17.407-3.689-20.772-9.15l.493-14.654 21.456 2.374Z"/>
    <path fill="#8F4A3F" d="M226.041 46.416s-9.648-1.206-8.544 10.902c.857 9.387 13.595 21.915 13.595 21.915s8.043-28.288-5.051-32.817Z"/>
    <path fill="#0E1235" d="M265.442 55.136c-.656 1.497-1.668 2.803-2.498 4.21-.821 1.405-1.477 3.012-1.295 4.638-.164-2.64-1.906-4.858-3.41-7.022-1.505-2.173-2.873-4.803-2.152-7.341.683-2.438 5.088-6.283 7.769-4.703 2.981 1.753 2.753 7.56 1.586 10.218Z"/>
    <path fill="#FBD5D9" d="M262.169 55.62s.747 7.414-.292 15.623c-1.204 9.487-.775 20.627-14.736 21.376-14.9.794-19.833-15.907-19.833-15.907s-7.915-1.479-8.453-6.83c-.538-5.36 4.988-5.66 6.794-4.154 0 0 2.042-19.97 20.471-19.97 16.258-.018 16.049 9.862 16.049 9.862Z"/>
    <path fill="#9A5449" d="M244.66 70.86a1.477 1.477 0 1 1-2.954 0 1.478 1.478 0 1 1 2.954 0Zm13.35 0a1.478 1.478 0 1 1-2.956.001 1.478 1.478 0 0 1 2.956-.002Z"/>
    <path stroke="#561E15" stroke-linecap="round" stroke-linejoin="round" stroke-miterlimit="10" stroke-width="1.027" d="M237.813 65.719s2.188-3.607 6.848-2.31m8.033-.055s3.365-3.078 6.675.292"/>
    <path stroke="#D66D78" stroke-linecap="round" stroke-linejoin="round" stroke-miterlimit="10" stroke-width=".771" d="M249.74 67.015s1.595 4.082 2.954 6.62c1.359 2.539-2.653 3.67-2.653 3.67m-5.645 4.566s3.292 3.196 7.523 1.242m-26.536-11.515s-.045-4.592-3.473-3.341"/>
    <path fill="#8F4A3F" d="M229.907 50.25s8.38 8.547 3.793 11.816c-5.106 3.644-5.899 8.793-5.899 8.793s.109-1.817-2.162-5.14c-2.27-3.333-7.221-15.149 4.268-15.468Z"/>
    <path fill="#04D361" d="M304.315 190.157c6.091 3.972 52.386-45.546 52.386-45.546l-8.216-10.766s-35.198 22.116-40.259 25.257c-7.294 4.52-24.401 17.705-3.911 31.055Z"/>
    <path fill="#03A14A" d="M279.694 161.366s2.07-22.635 1.715-29.822c0 0 2.945 19.002 3.018 36.561l-4.733-6.739Z"/>
    <path fill="#04D361" d="M201.466 153.651s10.842-46.487-.757-45.939c0 0-3.784.457-11.188 11.962-5.18 8.044-10.851 21.988-21.192 44.669-4.887 10.72-10.997 25.229.347 26.005 6.136.421 12.574-2.94 16.368-9.998 6.948-12.93 16.422-26.699 16.422-26.699Z"/>
    <path fill="#03A14A" d="m211.168 211.514 59.007-13.925c-.01 0-18.566 13.925-59.007 13.925Zm-15.848-48.522s9.52-16.884 14.581-25.12l-11.882 64.584s-1.158-26.379-2.699-39.464Z"/>
    <path fill="#03A14A" d="m233.263 184.989-35.289 16.499 1.814-16.965 33.475.466Z"/>
    <path fill="#04D361" stroke="#04D361" d="m239.043 182.166 5.827-31.859v-.001a3.524 3.524 0 0 1 3.475-2.894h12.383c2.204 0 3.874 2 3.475 4.176l-5.827 31.858a3.537 3.537 0 0 1-3.475 2.896h-12.383a3.536 3.536 0 0 1-3.475-4.176Z"/>
    <path fill="#fff" d="M256.433 188.193H244.05a4.035 4.035 0 0 1-3.967-4.766l5.827-31.858a4.023 4.023 0 0 1 3.967-3.306h12.383a4.035 4.035 0 0 1 3.966 4.767l-5.827 31.858a4.022 4.022 0 0 1-3.966 3.305Z"/>
    <path fill="#04D361" stroke="#04D361" d="m247.231 159.552.001-.004 1.422-7.78.001-.004a.265.265 0 0 1 .264-.216h2.216c.172 0 .298.155.266.319l-.001.005-1.422 7.779-.001.004a.264.264 0 0 1-.264.216h-2.216a.269.269 0 0 1-.266-.319Z"/>
    <path fill="#FFCAD0" d="M221.627 170.963s6.037-.201 10.66-1.616c1.988-.612 5.927-1.324 7.231-3.214 1.313-1.908 1.195-6.027 2.508-6.2 1.012-.137 3.036 3.086 2.516 5.259-.51 2.128-.756 3.306-1.531 4.256-.256.319 8.252.922 13.641-.265 3.693-.813 2.599 2.849.091 3.999 0 0 .894 2.237-1.723 2.995 0 0 .027 2.986-2.471 3.123-.283.694-.766 2.173-2.928 2.703-3.145.776-7.896 1.068-12.683.639-2.435-.219-13.669 1.753-13.669 1.753l-1.642-13.432Z"/>
    <path fill="#04D361" d="M168.311 190.522c8.617 1.507 59.982-4.301 59.982-4.301l-1.277-17.997s-41.854 1.954-47.434 1.452c-18.456-1.635-21.994 18.974-11.271 20.846Z"/>
    <path fill="#8F4A3F" d="M231.941 36.681c.884-.886 1.869-1.826 3.109-1.963s2.653 1.023 2.243 2.21a63.236 63.236 0 0 1 13.149-4.082c1.131-.219 2.353-.402 3.401.1 1.04.503 1.687 1.955.976 2.859 2.188.821 4.614.283 6.939.009 2.325-.274 4.979-.156 6.557 1.57 1.468 1.598 1.495 4.009 1.449 6.182-.073 2.977-.146 5.972-.82 8.875a21.885 21.885 0 0 1-6.611 11.204c.975-3.342-.766-7.049-3.511-9.195-2.735-2.155-6.264-3.004-9.72-3.397a45.33 45.33 0 0 0-12.475.311c-3.109.511-7.55 2.73-10.641 1.324-6.848-3.105 3.31-13.359 5.955-16.007Z"/>
  </g>
  <path fill="#04D361" d="M337.798 75.158h-42.876a5.95 5.95 0 0 1-5.945-5.954V51.198a5.95 5.95 0 0 1 5.945-5.954h42.876a5.95 5.95 0 0 1 5.945 5.954v18.006a5.95 5.95 0 0 1-5.945 5.954Z"/>
  <path fill="#04D361" d="M298.15 73.222v8.2l8.772-8.784-8.772.584Z"/>
  <path fill="#E6E6F0" d="M301.57 63.625a3.422 3.422 0 0 0 3.419-3.424 3.422 3.422 0 0 0-3.419-3.424 3.422 3.422 0 0 0-3.42 3.424 3.422 3.422 0 0 0 3.42 3.424Zm14.79 0a3.422 3.422 0 0 0 3.42-3.424 3.422 3.422 0 0 0-3.42-3.424 3.422 3.422 0 0 0-3.419 3.424 3.422 3.422 0 0 0 3.419 3.424Zm14.791 0a3.422 3.422 0 0 0 3.419-3.424 3.422 3.422 0 0 0-3.419-3.424 3.422 3.422 0 0 0-3.42 3.424 3.422 3.422 0 0 0 3.42 3.424Z"/>
  <path fill="#FEC9CF" d="m455.737 318.882-1.942 23.658h10.076l5.234-23.658h-13.368Z"/>
  <path fill="#11174D" d="M464.965 337.591s4.377 7.077 1.095 8.337c-3.283 1.26-24.894 1.37-30.228.575-5.335-.803 11.899-8.117 15.839-9.268 3.948-1.15 5.215 4.849 13.294.356Z"/>
  <path fill="#FEC9CF" d="m508.716 318.882 1.933 23.658h-10.076l-5.225-23.658h13.368Z"/>
  <path fill="#11174D" d="M499.479 337.591s-4.377 7.077-1.094 8.337c3.283 1.26 24.894 1.37 30.228.575 5.334-.803-11.9-8.117-15.839-9.268-3.939-1.15-5.216 4.849-13.295.356Z"/>
  <path fill="#D8D8E3" d="m453.713 189.522-4.568 141.851h21.273l4.587-94.479 18.228 97.191 23.17-3.862s-20.918-106.021-24.474-140.692h-38.216v-.009Z"/>
  <path fill="#194248" stroke="#C9C9D4" d="m474.027 243.401-.723-15.3 1.198 8.8-.475 6.5Z"/>
  <path stroke="#C9C9D4" stroke-linecap="round" stroke-linejoin="round" stroke-miterlimit="10" d="m485.09 189.522 24.62 141.495"/>
  <path fill="#D38D00" d="M479.965 84.962c4.541.01 9.365 2.393 10.897 6.675 1.186 3.296.292 7.186 1.951 10.273 1.222 2.282 3.666 3.752 4.769 6.09 2.28 4.858-2.161 10.629-.747 15.797 1.304 4.784 7.222 7.524 7.714 12.464.319 3.15-1.897 6.172-4.751 7.542-2.845 1.379-6.182 1.37-9.301.849-7.65-1.287-14.854-5.488-22.605-5.086-3.191.164-6.529 1.096-9.483-.137-2.106-.877-3.629-2.73-4.97-4.575-1.541-2.118-3.018-4.529-2.872-7.14.21-3.835 3.684-6.52 5.763-9.743 2.125-3.296 3.018-7.414 2.426-11.295-2.818-18.445 7.541-17.879 8.863-17.906 1.213-.027 5.243-2.502 6.839-2.968 1.805-.52 3.647-.84 5.507-.84Z"/>
  <path fill="#FCDDC6" d="M431.3 162.348c-4.386-3.498-22.222-15.313-22.396-16.966-.328-3.104-1.413-5.561-8.06-7.679 0 0-.529.986.392 2.073.994 1.178 1.796 1.588 1.796 1.588s-1.769.658-4.377-1.424c-2.608-2.082-3.693-3.881-4.805-3.452 0 0-1.295-1.196-1.915-1.013 0 0-.456.128-.374.621-1.031-.174-.848 2.794.948 5.232 2.59 3.497 7.158 6.163 9.839 7.177 2.006.758 15.164 20.244 23.982 22.353 2.535.584 7.012-6.885 4.97-8.51Z"/>
  <path fill="#FCDDC6" d="M445.096 145.063s-19.714 13.77-21.62 17.194c-1.906 3.424-.483 12.564 8.298 6.693 8.781-5.872 22.641-16.528 22.641-16.528l-9.319-7.359Z"/>
  <path fill="#47248F" d="M455.227 132.526s-5.417 1.37-9.028 5.67c-3.027 3.607-7.906 9.415-7.906 9.415l14.955 11.632c.009-.009 3.657-21.156 1.979-26.717Z"/>
  <path fill="#11174D" d="M491.929 189.522h-38.225s.155-6.565-1.97-16.765c-2.133-10.19-1.066-15.522 1.058-20.846 2.134-5.323-1.669-17.632 2.435-19.385 1.669-.712 4.568-1.863 7.413-2.968.721-.274 1.432-.557 2.116-.821 3.301-1.279 6.082-2.338 6.082-2.338h6.884s4.742 1.571 9.611 3.516c.639.255 1.286.52 1.924.785v.009c2.453 1.032 4.797 2.118 6.392 3.114 5.171 3.195-3.72 55.699-3.72 55.699Z"/>
  <path fill="#FFDFC8" d="m468.521 109.461.73 14.171.21 4.045a6.446 6.446 0 0 0 2.006 4.356 6.41 6.41 0 0 0 4.441 1.771 6.461 6.461 0 0 0 6.456-6.62l-.183-7.213-.31-11.989-13.35 1.479Z"/>
  <path fill="#DA9F74" d="m468.521 109.461.73 13.35c6.264.255 10.842-2.301 12.939-5.698l-.31-9.131-13.359 1.479Z"/>
  <path fill="#FFDFC8" d="M463.543 98.485s-.465 4.621.182 9.725c.748 5.908 1.404 12.674 9.183 13.313 9.264.758 12.355-9.907 12.355-9.907s4.304-1.005 4.833-3.945c.529-2.949-2.681-3.835-3.802-2.903 0 0-1.277-12.437-12.748-12.437-10.14 0-10.003 6.154-10.003 6.154Z"/>
  <path fill="#04D361" d="M489.257 130.7c0 .009 0 .009 0 0-7.842 9.569-17.088 9.122-17.088 9.122-7.295-1.598-9.529-10.264-9.529-10.264.721-.274 1.432-.557 2.116-.821 3.301-1.279 6.082-2.338 6.082-2.338h6.884s4.742 1.571 9.611 3.516c.639.255 1.286.52 1.924.785Z"/>
  <path fill="#FCDDC6" d="M487.333 129.915c-7.997 8.701-14.927 7.788-14.927 7.788-7.45-2.858-7.651-8.966-7.651-8.966 3.301-1.279 6.082-2.338 6.082-2.338h6.885s4.742 1.571 9.611 3.516Z"/>
  <path fill="#D38D00" d="M467.537 89.647s1.066 8.994-4.706 11.961c0 0-2.89-10.893 4.706-11.962Z"/>
  <path fill="#D38D00" d="M465.786 90.505s2.052 7.834 7.14 8.29c5.088.457 4.185 4.585 8.69 5.059 2.681.284 3.875 3.078 3.875 3.078s.392-2.776 2.818-3.762c2.444-.987-5.736-21.723-22.523-12.665Z"/>
  <path fill="#60423D" d="M474.421 109.36a.88.88 0 0 0 .885.886.88.88 0 0 0 .884-.886.88.88 0 0 0-.884-.885.892.892 0 0 0-.885.885Zm-8.005 0a.88.88 0 0 0 .884.885.886.886 0 0 0 0-1.771.886.886 0 0 0-.884.886Z"/>
  <path stroke="#561E15" stroke-linecap="round" stroke-linejoin="round" stroke-miterlimit="10" d="M478.533 106.274s-1.313-2.164-4.112-1.388m-4.815-.027s-2.024-1.844-4.002.173"/>
  <path stroke="#DA9F74" stroke-linecap="round" stroke-linejoin="round" stroke-miterlimit="10" stroke-width=".75" d="M471.375 107.059s-.957 2.447-1.769 3.972c-.811 1.525 1.596 2.201 1.596 2.201m5.48 1.735s-1.559 2.273-4.276 1.625m13.86-7.853s.028-2.757 2.079-1.999"/>
  <path fill="#04D361" d="M454.489 180.409h-35.016a1.261 1.261 0 0 1-1.258-1.26c0-.694.565-1.26 1.258-1.26h35.016c.693 0 1.258.566 1.258 1.26a1.261 1.261 0 0 1-1.258 1.26Z"/>
  <path fill="#04D361" stroke="#04D361" d="M415.535 150.622v-.002a1.347 1.347 0 0 1 1.302-1.669h31.541c.62 0 1.156.42 1.302 1.015v.002l6.795 27.43h-34.304l-6.636-26.776Z"/>
  <path fill="#fff" d="M454.689 177.898h-35.335l-6.729-27.156a1.847 1.847 0 0 1 1.787-2.291h31.541c.848 0 1.587.575 1.788 1.397l6.948 28.05Z"/>
  <path fill="#04D361" d="M481.588 180.409H455.09a1.179 1.179 0 0 1-1.176-1.178v-.155a1.18 1.18 0 0 1 1.176-1.178h26.498c.648 0 1.177.53 1.177 1.178v.155a1.163 1.163 0 0 1-1.177 1.178Z"/>
  <path fill="#04D361" stroke="#04D361" d="m434.48 161.632.001.001c.591 1.535.038 2.944-.909 3.317-.943.362-2.298-.311-2.891-1.85-.593-1.539-.036-2.953.908-3.317.944-.364 2.299.303 2.891 1.849Z"/>
  <path fill="#47248F" d="m493.862 177.898-2.298-29.822 4.414 12.555-2.116 17.267Z"/>
  <path fill="#FCDDC6" d="M494.163 151.108s5.453 29.347 6.802 34.15c.876 3.105 7.24 5.223 9.237 1.114.438-.904.338-2.411.292-3.945-.31-9.487-6.939-33.629-6.939-33.629l-9.392 2.31Z"/>
  <path fill="#11174D" d="M495.658 133.823s3.256 1.671 5.991 6.391c2.736 4.721 6.511 13.049 6.274 15.067-1.423 3.88-12.657 7.898-12.657 7.898s-7.504-24.7.392-29.356Z"/>
  <path fill="#FCDDC6" d="M501.959 179.587s-17.316-.383-20.599-2.337c-4.449-2.657-5.48-1.507-8.06-2.146-4.14-1.032-3.684-.192-3.684-.192s.191 2.402 3.392 2.703c1.614.155 4.03.84 3.519 1.233 0 0-12.838 1.342-15.419 1.57-2.581.229-1.322 2.219.647 2.676 0 0 1.177 1.488 3.083 1.032 0 0-.42.84 4.522.84 4.943 0 9.903-2.63 12.411-1.489 2.507 1.142 16.048 6.392 24.638 5.178 4.103-.585 4.131-2.557 4.131-4.639 0-3.607-2.663-4.063-8.581-4.429Z"/>
  <path fill="#BC8567" d="m142.705 318.882-5.717 23.658h-10.076l2.426-23.658h13.367Z"/>
  <path fill="#11174D" d="M125.818 337.591s-4.376 7.077-1.094 8.337c3.283 1.26 24.894 1.37 30.228.575 5.335-.803-11.899-8.117-15.839-9.268-3.939-1.15-5.215 4.849-13.295.356Z"/>
  <path fill="#BC8567" d="m110.973 318.882-3.456 23.658H97.441l.164-23.658h13.368Z"/>
  <path fill="#11174D" d="M96.347 337.591s-4.377 7.077-1.094 8.337c3.283 1.26 24.894 1.37 30.228.575 5.335-.803-11.9-8.117-15.839-9.268-3.939-1.15-5.216 4.849-13.295.356Z"/>
  <path fill="#D8D8E3" d="m94.04 204.461.748 126.246h15.994l11.298-92.754 12.875 37.638-9.638 55.125h17.398s15.292-47.637 14.672-56.987c-.62-9.36-18.274-73.113-18.274-73.113l-45.073 3.845Z"/>
  <path fill="#C9C9D4" stroke="#C9C9D4" d="m124.944 244.816-2.365-6.922 1.102-11.201 1.263 18.123Z"/>
  <path stroke="#C9C9D4" stroke-miterlimit="10" d="m103.068 202.936-.922 127.78"/>
  <path fill="#BC8567" d="M152.043 146.643s10.332 19.567 10.56 25.576c.227 6.008-6.383 4.666-9.803-.749-3.419-5.424-8.891-20.801-8.891-20.801l8.134-4.026Z"/>
  <path fill="#47248F" d="M153.976 148.277s-2.963 5.278-10.067 8.501c-1.468.667-2.708-1.096-3.629-3.187-1.067-2.438-1.687-5.314-1.687-5.314s-8.143-25.229-.966-24.325c0 0 6.109.429 10.596 9.286 1.176 2.31 3.009 6.967 4.541 11.387.437 1.26.848 2.492 1.212 3.652Z"/>
  <path fill="#04D361" d="M153.976 148.277s-2.963 5.278-10.067 8.501c-1.468.667-2.708-1.096-3.629-3.187 2.781-1.251 8.043-4.063 12.484-8.966.437 1.26.848 2.492 1.212 3.652Z"/>
  <path fill="#11174D" d="M139.478 201.995c-4.514 5.132-34.231 4.374-45.447 2.465-1.97-.337-3.912-1.095-.803-7.962 1.168-2.566.666-9.167.465-18.244-.392-17.942-5.708-47.71.849-51.125 3.93-2.054 12.273-4.757 18.337-6.601.365-.101.72-.21 1.067-.32 3.538-1.059 6.064-1.762 6.064-1.762s2.927.429 8.881 2.191c.319.092.666.201 1.012.302 1.55.474 3.274 1.022 5.198 1.68 3.729 1.269 6.465 2.045 7.131 3.287 1.778 3.26 1.094 9.04 1.203 17.367.146 10.455.037 54.193-3.957 58.722Z"/>
  <path fill="#47248F" d="m92.298 157.938 6.41-15.651-4.668 40.259-1.742-24.608Z"/>
  <path fill="#04D361" d="M129.904 120.948c-.137 2.21-1.131 4.154-2.627 5.579a8.464 8.464 0 0 1-5.854 2.347c-4.659 0-8.434-3.735-8.526-8.355.365-.101.721-.21 1.067-.32 3.538-1.059 6.064-1.762 6.064-1.762s2.927.429 8.882 2.191c.31.119.647.219.994.32Z"/>
  <path fill="#43302D" d="M133.789 86.5s-3.376-3.231-8.485-4c-7.473-1.124-17.313 1.31-19.273 12.735-1.55 6.583 6.465 17.404 9.492 16.773 0 0 27.251-17.273 18.266-25.508Z"/>
  <path fill="#BC8567" d="m128.882 102.329-.729 14.172-.21 4.045a6.402 6.402 0 0 1-2.006 4.355 6.413 6.413 0 0 1-4.441 1.772 6.461 6.461 0 0 1-6.456-6.62l.183-7.214.31-11.989 13.349 1.479Z"/>
  <path fill="#765441" d="m128.883 105.151-.73 13.35c-6.264.255-10.842-2.301-12.939-5.698l.31-9.131 13.359 1.479Z"/>
  <path fill="#BC8567" d="M133.852 94.175s.465 4.62-.182 9.725c-.748 5.908-.484 12.847-9.183 13.313-9.282.493-12.355-9.907-12.355-9.907s-4.934-.922-5.271-4.255c-.337-3.333 3.109-3.525 4.231-2.593 0 0 1.277-12.437 12.748-12.437 10.149.01 10.012 6.154 10.012 6.154Z"/>
  <path fill="#60423D" d="M123.237 103.106c0 .511-.41.922-.921.922a.919.919 0 0 1-.92-.922c0-.512.41-.923.92-.923.502 0 .921.411.921.923Zm8.873-.475a.92.92 0 0 1-.921.922.919.919 0 0 1-.921-.922c0-.511.41-.922.921-.922a.92.92 0 0 1 .921.922Z"/>
  <path stroke="#43302D" stroke-linecap="round" stroke-linejoin="round" stroke-miterlimit="10" d="M118.688 100.467s1.358-2.246 4.266-1.434m4.998-.036s2.097-1.918 4.157.182"/>
  <path stroke="#765441" stroke-linecap="round" stroke-linejoin="round" stroke-miterlimit="10" stroke-width=".75" d="M126.119 101.28s.994 2.538 1.842 4.127c.848 1.579-1.659 2.283-1.659 2.283m-3.52 2.839s2.051 1.991 4.686.776m-16.523-7.178s-.027-2.857-2.16-2.081"/>
  <path fill="#43302D" d="M113.763 90.834s5.216 5.323 2.362 7.36c-3.173 2.264-3.675 5.478-3.675 5.478s.064-1.132-1.349-3.205c-1.414-2.073-4.496-9.433 2.662-9.633Z"/>
  <path fill="#BC8567" d="M85.204 147.693s-10.331 19.567-10.56 25.576c-.227 6.008 6.384 4.666 9.803-.749 3.42-5.424 8.891-20.801 8.891-20.801l-8.134-4.026Zm73.669 17.905-16.277-12.062c-1.486-1.114-3.656-2.73-4.441-3.278-1.24-.867-8.489-2.127-9.501-1.963-1.003.164-3.784.639-4.596.94-.811.302.21 1.343 1.012 1.836.803.493 4.359 2.337 7.377 2.894 1.678.311 3.119 1.16 4.295 2.009.939.676 17.189 17.267 17.8 17.669l4.331-8.045Z"/>
  <path fill="#BC8567" d="M139.806 151.592s-5.8-5.433-6.666-5.351c-.857.082-.246 1.306 2.033 3.159.776.63 1.605 1.625 2.298 1.954 1.359.639 2.335.238 2.335.238Z"/>
  <path fill="#04D361" stroke="#04D361" d="M135.133 171.165h.003a1.254 1.254 0 0 0 1.068-.935l5.051-19.449a1.264 1.264 0 0 0-1.371-1.569h-.001l-21.145 2.529h-.003a1.254 1.254 0 0 0-1.068.935l-5.052 19.449a1.266 1.266 0 0 0 1.372 1.57l21.146-2.53Zm0 0-21.146 2.529 21.146-2.529Z"/>
  <path fill="#fff" d="m136.132 172.31-21.146 2.529a1.764 1.764 0 0 1-1.915-2.191l5.052-19.449a1.752 1.752 0 0 1 1.496-1.306l21.146-2.53a1.765 1.765 0 0 1 1.914 2.192l-5.051 19.449a1.778 1.778 0 0 1-1.496 1.306Z"/>
  <path fill="#04D361" stroke="#04D361" d="m119.863 157.108-.001.005a.048.048 0 0 1-.017.023.097.097 0 0 1-.045.023l-1.006.117a.06.06 0 0 1-.055-.022.058.058 0 0 1-.014-.058v-.001l.993-3.816h.001l.002-.009a.053.053 0 0 1 .047-.04l1.019-.119h.001a.063.063 0 0 1 .055.023.06.06 0 0 1 .014.057v.001l-.994 3.816Z"/>
  <path fill="#BC8567" d="M78.593 167.48c6.456.255 26.636-.165 29.307-1.078 1.149-.392 3.976-.986 4.697-2.109.729-1.141 1.349-2.876 2.106-3.004.584-.101.447 1.78.273 2.465-.328 1.233-.547 1.872-.984 2.438-.146.192 4.823.904 7.942.11 2.143-.548 1.742 1.169.301 1.89 0 0 .574 1.497-.939 1.99 0 0 .264 1.662-1.195 1.79-.155.411-.611 1.151-1.869 1.507-1.824.511-4.988.502-7.395.602-1.423.055-28.915 4.356-33.776 3.132-2.024-.511-.565-9.816 1.532-9.733Z"/>
  <path fill="#11174D" d="M97.122 150.322s-.474 1.799-1.176 3.653c-.785 2.045-1.851 4.145-2.9 3.954 0 0-14.262-4.511-13.787-5.972.355-1.087.966-2.502 1.723-4.073 2.362-4.912 6.11-11.322 7.623-13.806 5.161-8.483 7.277-7.405 7.277-7.405 7.231-.347 1.24 23.649 1.24 23.649Z"/>
  <path fill="#04D361" d="M95.946 153.975c-.785 2.045-1.851 4.145-2.9 3.954 0 0-14.262-4.511-13.787-5.972.355-1.087.966-2.502 1.723-4.073 2.626 1.242 9.711 4.502 14.964 6.091Z"/>
  <path fill="#47248F" d="M100.469 193.96s23.708-3.808 36.474-11.414c0 0-14.28 14.308-36.474 11.414Z"/>
  <path fill="#11174D" d="M396.148 284.439h-61.651a5.492 5.492 0 0 1-5.489-5.496v-29.832a5.492 5.492 0 0 1 5.489-5.496h61.651a5.492 5.492 0 0 1 5.489 5.496v29.822a5.489 5.489 0 0 1-5.489 5.506Z"/>
  <path stroke="#fff" stroke-linecap="round" stroke-linejoin="round" stroke-miterlimit="10" stroke-width="2" d="M335.545 273.893c5.745 0 5.745-6.848 11.49-6.848 5.744 0 5.744-9.131 11.489-9.131 5.745 0 5.745 3.497 11.489 3.497 5.745 0 5.745-8.446 11.49-8.446 5.744 0 5.744 13.249 11.489 13.249"/>
  <path fill="#fff" d="M337.223 273.893c0-.922-.748-1.671-1.669-1.671a1.67 1.67 0 0 0 0 3.342c.921 0 1.669-.749 1.669-1.671Zm57.447-7.67c0-.922-.748-1.671-1.669-1.671a1.67 1.67 0 0 0 0 3.341 1.67 1.67 0 0 0 1.669-1.67Z"/>
  <path fill="#11174D" d="M39.62 69.047h61.578c4.122 0 7.468-3.351 7.468-7.478v-18.82c0-4.127-3.346-7.478-7.468-7.478H39.621c-4.122 0-7.469 3.351-7.469 7.478v18.82a7.471 7.471 0 0 0 7.468 7.478Z"/>
  <path fill="#11174D" d="M99.493 67.111v8.2l-8.781-8.784 8.781.584Z"/>
  <path stroke="#fff" stroke-linecap="round" stroke-linejoin="round" stroke-miterlimit="10" stroke-width="2.216" d="M39.228 43.562h17.07m6.082 0h39.21m-62.362 8.601h31.824m4.87 0h9.42m5.051 0h11.198m-62.363 8.593h7.204m4.414 0h25.988"/>
  <path fill="#11174D" d="M422.892 38.551H407.09a5.32 5.32 0 0 1-5.317-5.323V17.404a5.32 5.32 0 0 1 5.317-5.324h15.802a5.32 5.32 0 0 1 5.316 5.324v15.824a5.32 5.32 0 0 1-5.316 5.323Z"/>
  <path fill="#fff" d="m423.986 23.95-.393-1.735a.636.636 0 0 0-.756-.475l-1.022.238a.63.63 0 0 1-.674-.292 7.339 7.339 0 0 0-1.459-1.671.637.637 0 0 1-.174-.767l.511-1.05a.627.627 0 0 0-.292-.84l-1.605-.777a.625.625 0 0 0-.839.293l-.547 1.14c-.118.257-.401.384-.675.348a7.85 7.85 0 0 0-1.039-.073c-.356 0-.702.027-1.04.073-.282.036-.556-.091-.674-.347l-.547-1.141a.628.628 0 0 0-.839-.293l-1.605.777a.63.63 0 0 0-.292.84l.511 1.05a.65.65 0 0 1-.174.767 7.314 7.314 0 0 0-1.459 1.67.63.63 0 0 1-.674.293l-1.022-.238a.64.64 0 0 0-.756.475l-.393 1.735a.642.642 0 0 0 .475.758l1.294.292c-.009.183-.027.356-.027.539 0 .867.155 1.707.438 2.474a.64.64 0 0 1-.192.722l-.501.402a.628.628 0 0 0-.101.885l1.058 1.397c.219.274.611.32.885.1l.346-.282a.644.644 0 0 1 .794.009 7.38 7.38 0 0 0 2.471 1.27.642.642 0 0 1 .474.61v.366c0 .347.282.63.629.63h1.778a.63.63 0 0 0 .629-.63v-.365c0-.292.201-.53.474-.612a7.232 7.232 0 0 0 2.472-1.27c.237-.182.565-.2.793-.008l.346.283a.627.627 0 0 0 .885-.1l1.112-1.389a.627.627 0 0 0-.1-.885l-.501-.402a.64.64 0 0 1-.192-.721 7.2 7.2 0 0 0 .438-2.475c0-.183-.018-.356-.028-.539l1.295-.292a.655.655 0 0 0 .484-.767Zm-8.991 6.1a4.506 4.506 0 0 1-4.505-4.511 4.506 4.506 0 1 1 9.009 0 4.505 4.505 0 0 1-4.504 4.51Z"/>
  <path fill="#11174D" d="M563.142 143.35c1.619-9.981-5.149-19.384-15.116-21.002-9.967-1.618-19.36 5.161-20.979 15.141-1.619 9.98 5.149 19.383 15.116 21.001 9.967 1.619 19.36-5.16 20.979-15.14Z"/>
  <path fill="#11174D" stroke="#fff" stroke-linecap="round" stroke-linejoin="round" stroke-miterlimit="10" stroke-width="2" d="M555.102 142.823c1.305-5.531-2.115-11.072-7.638-12.377-5.524-1.305-11.06 2.121-12.366 7.651-1.305 5.531 2.115 11.073 7.638 12.378 5.524 1.305 11.06-2.121 12.366-7.652Z"/>
  <path fill="#11174D" d="M545.081 133.695v6.729l-3.547 3.552"/>
  <path stroke="#fff" stroke-linecap="round" stroke-linejoin="round" stroke-miterlimit="10" stroke-width="2" d="M545.081 133.695v6.729l-3.547 3.552m3.547-13.842v.986m0 18.618v.977m10.278-10.291h-.986m-18.583 0h-.985"/>
</svg>
